<svg xmlns="http://www.w3.org/2000/svg" version="1.1" xmlns:xlink="http://www.w3.org/1999/xlink" xmlns:svgjs="http://svgjs.dev/svgjs" width="1440" height="560" preserveAspectRatio="none" viewBox="0 0 1440 560"><g mask="url(&quot;#SvgjsMask1029&quot;)" fill="none"><rect width="1440" height="560" x="0" y="0" fill="#0e2a47"></rect><path d="M516.304,404.36C551.295,401.677,572.954,368.748,587.714,336.909C599.884,310.658,598.632,281.537,585.101,255.961C570.486,228.337,547.555,202.233,516.304,201.936C484.688,201.636,462.099,227.907,445.208,254.634C426.606,284.068,408.085,318.084,423.021,349.538C439.602,384.457,477.761,407.316,516.304,404.36" fill="rgba(241, 228, 0, 1)" class="triangle-float2"></path><path d="M210.452,195.394C236.172,197.362,261.398,183.819,274.147,161.395C286.766,139.201,283.418,111.971,270.356,90.035C257.618,68.642,235.35,54.393,210.452,54.424C185.606,54.455,161.843,67.923,150.803,90.182C140.716,110.519,150.47,133.039,161.666,152.787C173.079,172.918,187.378,193.628,210.452,195.394" fill="rgba(241, 228, 0, 1)" class="triangle-float1"></path><path d="M830.4,673.472C884.635,676.033,933.773,641.949,960.285,594.567C986.182,548.283,982.169,493.142,957.599,446.139C930.815,394.9,888.212,346.874,830.4,346.09C771.604,345.293,721.874,389.288,697.085,442.608C675.623,488.773,694.696,539.141,720.155,583.228C745.609,627.307,779.557,671.071,830.4,673.472" fill="rgba(241, 228, 0, 1)" class="triangle-float3"></path><path d="M162.032,500.474C210.125,500.438,251.523,470.912,276.674,429.92C303.21,386.671,318.82,331.766,291.958,288.719C266.102,247.284,210.866,246.981,162.032,246.201C111.111,245.388,51.705,241.265,24.712,284.45C-3.191,329.091,18.85,385.665,47.091,430.093C72.922,470.729,113.881,500.51,162.032,500.474" fill="rgba(241, 228, 0, 1)" class="triangle-float3"></path><path d="M136.748,462.193C180.753,463.283,219.338,435.956,242.072,398.263C265.663,359.149,275.472,310.101,252.175,270.812C229.241,232.134,181.709,219.939,136.748,220.637C93.224,221.312,48.629,236.32,27.362,274.3C6.479,311.594,18.582,356.322,40.087,393.261C61.427,429.917,94.346,461.143,136.748,462.193" fill="rgba(241, 228, 0, 1)" class="triangle-float1"></path><path d="M1451.691,520.453C1514.261,521.644,1573.768,489.069,1604.282,434.431C1634.104,381.031,1628.589,314.723,1595.208,263.473C1564.622,216.514,1507.732,200.514,1451.691,200.158C1394.862,199.797,1335.093,213.432,1304.981,261.629C1273.326,312.296,1279.38,376.833,1308.841,428.807C1338.742,481.558,1391.066,519.299,1451.691,520.453" fill="rgba(241, 228, 0, 1)" class="triangle-float2"></path><path d="M1173.134,459.343C1200.676,459.893,1231.012,455.517,1245.188,431.897C1259.654,407.793,1251.028,377.781,1236.546,353.686C1222.581,330.451,1200.242,311.834,1173.134,312.011C1146.284,312.187,1124.514,331.22,1111.144,354.506C1097.839,377.679,1092.297,406.115,1105.897,429.116C1119.302,451.786,1146.802,458.817,1173.134,459.343" fill="rgba(241, 228, 0, 1)" class="triangle-float1"></path><path d="M591.724,133.242C606.323,132.776,615.987,120.091,623.574,107.61C631.594,94.416,639.632,79.34,632.949,65.421C625.561,50.036,608.755,40.168,591.724,41.282C576.11,42.303,566.105,56.381,558.891,70.266C552.369,82.819,549.604,97.221,556.144,109.765C563.184,123.269,576.503,133.728,591.724,133.242" fill="rgba(241, 228, 0, 1)" class="triangle-float1"></path><path d="M655.55,655.414C694.136,659.024,739.04,652.452,757.509,618.381C775.534,585.129,750.816,548.178,731.218,515.829C712.662,485.2,691.31,452.009,655.55,450.086C617.223,448.026,581.068,472.31,564.344,506.857C549.286,537.964,563.947,572.511,582.029,601.963C599.02,629.638,623.216,652.389,655.55,655.414" fill="rgba(241, 228, 0, 1)" class="triangle-float2"></path><path d="M789.165,368.581C823.829,368.39,855.402,350.304,873.619,320.811C892.88,289.627,898.46,251.214,881.836,218.548C863.616,182.746,829.33,155.601,789.165,154.863C747.855,154.104,709.34,178.309,690.399,215.029C672.797,249.154,682.308,289.459,703.08,321.753C722.02,351.199,754.155,368.774,789.165,368.581" fill="rgba(241, 228, 0, 1)" class="triangle-float1"></path><path d="M784.42,661.159C825.91,661.729,872.539,656.858,893.396,620.987C914.322,584.996,894.822,542.393,874.648,505.976C853.574,467.935,827.807,427.233,784.42,424.269C737.02,421.03,692.421,450.12,669.97,491.992C648.612,531.825,655.181,580.628,680.508,618.063C703.029,651.351,744.234,660.607,784.42,661.159" fill="rgba(241, 228, 0, 1)" class="triangle-float3"></path><path d="M320.927,432.014C343.408,431.127,358.358,411.78,369.967,392.508C382.114,372.343,394.827,348.703,383.561,328.033C371.999,306.819,345.066,301.523,320.927,302.535C298.759,303.464,278.15,313.881,266.771,332.928C255.087,352.486,253.769,376.67,264.695,396.661C276.076,417.484,297.215,432.949,320.927,432.014" fill="rgba(241, 228, 0, 1)" class="triangle-float2"></path><path d="M551.02,664.379C603.091,664.365,649.339,631.601,673.594,585.524C696.297,542.395,686.707,492.644,664.169,449.429C639.338,401.818,604.692,352.145,551.02,350.497C495.434,348.79,450.891,392.789,425.161,442.091C401.436,487.553,403.064,540.967,428.33,585.591C453.996,630.922,498.927,664.393,551.02,664.379" fill="rgba(241, 228, 0, 1)" class="triangle-float3"></path><path d="M1501.111,534.078C1556.598,533.07,1610.946,513.773,1641.396,467.377C1675.079,416.055,1687.133,349.861,1657.181,296.276C1626.62,241.601,1563.618,212.365,1501.111,216.402C1444.575,220.053,1404.979,265.464,1376.443,314.406C1347.623,363.836,1323.468,422.877,1351.709,472.64C1380.195,522.833,1443.408,535.126,1501.111,534.078" fill="rgba(241, 228, 0, 1)" class="triangle-float2"></path><path d="M1258.766,480.8C1306.568,482.321,1351.471,457.605,1376.306,416.733C1402.145,374.208,1408.303,319.971,1382.247,277.579C1357.176,236.789,1306.644,225.859,1258.766,225.501C1210.07,225.137,1156.211,233.432,1132.044,275.709C1107.994,317.781,1128.03,368.419,1153.503,409.645C1177.363,448.261,1213.396,479.357,1258.766,480.8" fill="rgba(241, 228, 0, 1)" class="triangle-float1"></path><path d="M130.526,110.607C150.625,110.845,166.838,96.311,177.077,79.014C187.55,61.321,192.324,40.159,183.106,21.781C172.937,1.507,153.207,-13.883,130.526,-13.797C107.966,-13.712,88.507,1.893,78.629,22.175C69.834,40.233,75.684,60.609,85.85,77.932C95.859,94.987,110.752,110.372,130.526,110.607" fill="rgba(241, 228, 0, 1)" class="triangle-float3"></path><path d="M1315.93,159.14C1333.541,159.418,1352.445,156.466,1362.039,141.695C1372.366,125.796,1371.463,104.9,1361.726,88.633C1352.241,72.788,1334.39,64.158,1315.93,64.665C1298.329,65.148,1283.095,75.785,1274.291,91.034C1265.486,106.284,1263.086,125.256,1272.271,140.28C1281.134,154.776,1298.941,158.872,1315.93,159.14" fill="rgba(241, 228, 0, 1)" class="triangle-float2"></path><path d="M1393.008,381.346C1422.272,381.753,1443.746,356.986,1457.932,331.387C1471.59,306.739,1479.257,276.622,1464.258,252.767C1449.921,229.966,1419.906,226.731,1393.008,228.131C1369.01,229.38,1346.053,239.053,1333.545,259.572C1320.51,280.954,1320.15,307.122,1331.138,329.624C1343.78,355.512,1364.201,380.945,1393.008,381.346" fill="rgba(241, 228, 0, 1)" class="triangle-float2"></path></g><defs><mask id="SvgjsMask1029"><rect width="1440" height="560" fill="#ffffff"></rect></mask><style>
                @keyframes float1 {
                    0%{transform: translate(0, 0)}
                    50%{transform: translate(-10px, 0)}
                    100%{transform: translate(0, 0)}
                }

                .triangle-float1 {
                    animation: float1 5s infinite;
                }

                @keyframes float2 {
                    0%{transform: translate(0, 0)}
                    50%{transform: translate(-5px, -5px)}
                    100%{transform: translate(0, 0)}
                }

                .triangle-float2 {
                    animation: float2 4s infinite;
                }

                @keyframes float3 {
                    0%{transform: translate(0, 0)}
                    50%{transform: translate(0, -10px)}
                    100%{transform: translate(0, 0)}
                }

                .triangle-float3 {
                    animation: float3 6s infinite;
                }
            </style></defs></svg>