<svg xmlns="http://www.w3.org/2000/svg" version="1.1" xmlns:xlink="http://www.w3.org/1999/xlink" xmlns:svgjs="http://svgjs.dev/svgjs" width="1440" height="560" preserveAspectRatio="none" viewBox="0 0 1440 560"><g mask="url(&quot;#SvgjsMask1035&quot;)" fill="none"><path d="M1278.668,93.247C1293.431,92.826,1307.187,85.612,1314.625,72.853C1322.118,60.001,1322.182,44.148,1314.833,31.213C1307.394,18.121,1293.721,9.189,1278.668,9.568C1264.181,9.933,1253.043,20.57,1245.528,32.961C1237.644,45.96,1231.655,61.685,1238.978,75.008C1246.495,88.683,1263.069,93.691,1278.668,93.247" fill="rgba(241, 228, 0, 1)" class="triangle-float1"></path><path d="M384.169,112.388C414.018,110.546,444.294,101.918,459.689,76.279C475.492,49.96,473.22,16.707,457.427,-9.618C442.087,-35.187,413.953,-48.204,384.169,-49.601C351.289,-51.143,316.59,-44.232,297.959,-17.096C276.914,13.556,269.971,55.763,290.577,86.712C309.792,115.572,349.563,114.523,384.169,112.388" fill="rgba(241, 228, 0, 1)" class="triangle-float1"></path><path d="M647.526,469.845C672.073,469.294,694.634,455.735,706.214,434.084C717.195,413.552,712.605,389.506,701.413,369.088C689.673,347.672,671.941,326.386,647.526,327.022C623.764,327.641,610.185,351.194,598.294,371.776C586.395,392.373,573.418,415.566,584.09,436.825C595.553,459.659,621.982,470.418,647.526,469.845" fill="rgba(241, 228, 0, 1)" class="triangle-float2"></path><path d="M956.268,669.484C992.501,670.637,1034.766,670.759,1053.221,639.557C1071.855,608.052,1052.769,570.109,1033.423,539.036C1015.509,510.263,990.161,483.566,956.268,483.833C922.721,484.098,898.01,511.208,881.194,540.237C864.323,569.36,852.542,604.604,869.447,633.707C886.298,662.717,922.736,668.417,956.268,669.484" fill="rgba(241, 228, 0, 1)" class="triangle-float3"></path><path d="M83.691,154.481C112.009,156.703,144.321,158.109,160.759,134.943C179.146,109.031,178.078,72.584,160.66,46.01C144.576,21.471,113.032,17.223,83.691,17.362C54.676,17.499,21.922,21.29,7.973,46.732C-5.669,71.614,8.748,101.08,25.063,124.297C38.608,143.573,60.204,152.638,83.691,154.481" fill="rgba(241, 228, 0, 1)" class="triangle-float2"></path><path d="M1251.051,569.468C1271.551,569.268,1294.085,565.887,1304.315,548.121C1314.531,530.379,1305.989,509.289,1295.989,491.424C1285.667,472.984,1272.167,453.796,1251.051,452.965C1228.886,452.093,1210.565,468.381,1199.542,487.63C1188.596,506.745,1184.221,530.537,1195.954,549.179C1207.127,566.931,1230.076,569.673,1251.051,569.468" fill="rgba(241, 228, 0, 1)" class="triangle-float1"></path><path d="M1198.618,272.965C1232.113,273.256,1268.641,264.111,1284.067,234.378C1298.756,206.067,1280.767,174.416,1263.739,147.447C1248.263,122.935,1227.542,100.979,1198.618,99.041C1166.251,96.873,1133.482,109.998,1116.401,137.577C1098.466,166.535,1098.024,203.801,1115.704,232.915C1132.779,261.033,1165.722,272.679,1198.618,272.965" fill="rgba(241, 228, 0, 1)" class="triangle-float3"></path><path d="M797.696,355.127C843.263,356.676,884.004,326.718,905.191,286.347C924.994,248.613,916.862,204.683,896.215,167.404C874.767,128.68,841.888,94.834,797.696,92.263C749.268,89.446,699.152,111.45,677.098,154.657C656.426,195.158,678.717,240.479,702.157,279.444C724.604,316.758,754.176,353.647,797.696,355.127" fill="rgba(241, 228, 0, 1)" class="triangle-float1"></path><path d="M1114.067,159.4C1149.945,161.109,1183.172,139.765,1200.726,108.428C1217.899,77.77,1215.776,40.244,1197.689,10.116C1180.135,-19.124,1148.171,-35.748,1114.067,-35.922C1079.64,-36.098,1045.243,-21.075,1028.95,9.253C1013.346,38.299,1024.357,72.118,1040.617,100.802C1057.172,130.005,1080.536,157.803,1114.067,159.4" fill="rgba(241, 228, 0, 1)" class="triangle-float3"></path><path d="M502.519,370.84C561.801,370.864,610.286,327.185,637.709,274.627C663.039,226.082,659.476,169.179,632.647,121.446C605.213,72.637,558.51,33.999,502.519,34.106C446.683,34.212,400.584,73.255,373.246,121.94C346.538,169.503,342.378,226.108,367.52,274.517C394.829,327.097,443.27,370.816,502.519,370.84" fill="rgba(241, 228, 0, 1)" class="triangle-float2"></path><path d="M804.238,302.375C833.423,302.563,864.737,299.177,881.245,275.108C899.755,248.122,902.359,211.781,885.69,183.621C869.286,155.909,836.397,143.332,804.238,145.017C774.892,146.555,751.147,166.064,736.342,191.448C721.401,217.065,713.453,248.83,728.935,274.124C743.936,298.632,775.505,302.189,804.238,302.375" fill="rgba(241, 228, 0, 1)" class="triangle-float2"></path><path d="M881.658,121.238C901.014,119.878,913.149,102.346,922.343,85.258C930.911,69.335,936.804,50.805,928.074,34.97C919.1,18.691,900.241,11.003,881.658,11.458C863.878,11.894,848.681,22.22,839.02,37.152C828.267,53.772,820.745,74.114,829.697,91.769C839.349,110.804,860.368,122.734,881.658,121.238" fill="rgba(241, 228, 0, 1)" class="triangle-float1"></path><path d="M521.108,382.546C534.97,382.33,547.758,375.892,555.354,364.294C563.825,351.359,568.584,334.962,561.15,321.404C553.495,307.443,537.019,301.252,521.108,301.839C506.214,302.389,493.249,311.228,485.88,324.183C478.599,336.983,477.349,352.785,484.959,365.392C492.346,377.63,506.815,382.769,521.108,382.546" fill="rgba(241, 228, 0, 1)" class="triangle-float3"></path><path d="M771.083,746.341C825.056,744.369,857.552,693.05,884.233,646.092C910.462,599.93,937.015,546.264,911.091,499.93C884.782,452.907,824.95,442.543,771.083,443.854C719.97,445.098,668.978,462.792,642.399,506.469C614.829,551.776,617.572,608.182,642.644,654.918C669.27,704.551,714.797,748.397,771.083,746.341" fill="rgba(241, 228, 0, 1)" class="triangle-float3"></path><path d="M566.855,459.052C597.154,458.399,619.303,433.98,634.356,407.677C649.283,381.594,658.552,350.456,644.073,324.122C629.165,297.008,597.781,283.908,566.855,284.904C537.629,285.845,512.434,303.52,497.797,328.834C483.142,354.179,480.402,384.833,494.119,410.698C508.739,438.265,535.658,459.724,566.855,459.052" fill="rgba(241, 228, 0, 1)" class="triangle-float1"></path><path d="M1148.011,536.587C1176.056,535.793,1197.522,515.38,1212.354,491.565C1228.356,465.871,1242.196,434.973,1227.922,408.28C1213.084,380.53,1179.363,368.538,1148.011,371.234C1120.657,373.586,1102.445,396.407,1088.819,420.242C1075.331,443.837,1064.707,471.173,1077.031,495.396C1090.326,521.528,1118.704,537.417,1148.011,536.587" fill="rgba(241, 228, 0, 1)" class="triangle-float2"></path></g><defs><mask id="SvgjsMask1035"><rect width="1440" height="560" fill="#ffffff"></rect></mask><style>
                @keyframes float1 {
                    0%{transform: translate(0, 0)}
                    50%{transform: translate(-10px, 0)}
                    100%{transform: translate(0, 0)}
                }

                .triangle-float1 {
                    animation: float1 5s infinite;
                }

                @keyframes float2 {
                    0%{transform: translate(0, 0)}
                    50%{transform: translate(-5px, -5px)}
                    100%{transform: translate(0, 0)}
                }

                .triangle-float2 {
                    animation: float2 4s infinite;
                }

                @keyframes float3 {
                    0%{transform: translate(0, 0)}
                    50%{transform: translate(0, -10px)}
                    100%{transform: translate(0, 0)}
                }

                .triangle-float3 {
                    animation: float3 6s infinite;
                }
            </style></defs></svg>