<svg xmlns="http://www.w3.org/2000/svg" version="1.1" xmlns:xlink="http://www.w3.org/1999/xlink" xmlns:svgjs="http://svgjs.dev/svgjs" width="1440" height="560" preserveAspectRatio="none" viewBox="0 0 1440 560"><g mask="url(&quot;#SvgjsMask1002&quot;)" fill="none"><path d="M415.23,152.476C439.648,154.525,467.467,149.659,479.398,128.256C491.149,107.177,478.942,82.235,465.592,62.131C453.955,44.606,436.262,32.065,415.23,31.622C393.397,31.162,371.564,40.788,361.056,59.931C350.868,78.49,356.649,100.584,367.344,118.855C377.904,136.895,394.399,150.728,415.23,152.476" fill="rgba(241, 228, 0, 1)" class="triangle-float1"></path><path d="M275.422,646.96C330.097,647.078,373.371,605.431,399.533,557.422C424.442,511.712,429.741,456.779,403.585,411.771C377.548,366.968,327.241,343.811,275.422,343.861C223.696,343.911,173.578,367.238,147.684,412.016C121.762,456.844,127.5,511.394,152.235,556.888C178.277,604.786,220.902,646.842,275.422,646.96" fill="rgba(241, 228, 0, 1)" class="triangle-float2"></path><path d="M248.584,176.151C272.343,175.336,295.013,166.804,308.518,147.239C324.303,124.372,335.52,94.528,321.475,70.553C307.522,46.736,276.187,45.044,248.584,44.934C220.707,44.823,189.586,46.411,174.68,69.968C159.036,94.691,164.369,127.595,181.082,151.608C195.741,172.669,222.939,177.03,248.584,176.151" fill="rgba(241, 228, 0, 1)" class="triangle-float1"></path><path d="M968.239,709.337C1028.865,712.695,1089.936,684.847,1119.475,631.798C1148.36,579.923,1135.472,516.422,1103.527,466.373C1074.112,420.288,1022.899,393.689,968.239,394.851C915.581,395.971,868.396,426.023,842.562,471.922C817.225,516.939,819.316,570.854,843.484,616.509C869.476,665.61,912.768,706.264,968.239,709.337" fill="rgba(241, 228, 0, 1)" class="triangle-float1"></path><path d="M815.238,427.076C850.48,425.781,879.431,401.286,895.815,370.057C911.01,341.094,908.568,307.398,893.161,278.547C876.674,247.672,850.139,221.815,815.238,219.166C775.57,216.155,733.74,230.547,713.724,264.927C693.61,299.476,702.494,342.496,723.708,376.381C743.544,408.065,777.882,428.449,815.238,427.076" fill="rgba(241, 228, 0, 1)" class="triangle-float3"></path><path d="M384.013,593.75C419.247,594.854,447.336,568.656,465.88,538.677C485.694,506.644,499.946,467.931,482.478,434.561C464.007,399.274,423.839,381.793,384.013,382.281C345.056,382.759,306.634,401.866,289.642,436.925C274.197,468.792,292.312,503.469,310.571,533.812C328.033,562.83,350.163,592.69,384.013,593.75" fill="rgba(241, 228, 0, 1)" class="triangle-float2"></path><path d="M898.471,599.028C938.473,599.897,970.349,570.059,990.827,535.685C1011.908,500.299,1024.966,456.892,1004.412,421.198C983.828,385.452,939.651,372.913,898.471,375.294C861.469,377.433,829.608,399.818,811.815,432.332C794.751,463.513,796.416,500.281,812.811,531.819C830.753,566.333,859.581,598.183,898.471,599.028" fill="rgba(241, 228, 0, 1)" class="triangle-float2"></path><path d="M834.591,127.795C862.463,129.051,886.55,110.267,900.694,86.218C915.059,61.793,920.168,31.36,905.597,7.057C891.356,-16.695,862.244,-25.548,834.591,-24.035C809.605,-22.668,787.766,-7.864,775.88,14.156C764.583,35.085,767.147,59.559,778.063,80.689C790.13,104.045,808.329,126.611,834.591,127.795" fill="rgba(241, 228, 0, 1)" class="triangle-float2"></path><path d="M1211.635,293.355C1261.302,292.041,1299.128,254.593,1324.206,211.702C1349.584,168.297,1365.782,115.769,1341.069,71.981C1316.037,27.627,1262.556,13.185,1211.635,12.243C1158.596,11.261,1100.915,21.539,1073.628,67.031C1045.764,113.484,1060.05,171.696,1088.251,217.945C1115.147,262.053,1159.991,294.721,1211.635,293.355" fill="rgba(241, 228, 0, 1)" class="triangle-float3"></path><path d="M503.43,283.049C558.024,283.04,616.795,274.205,646.016,228.09C676.919,179.32,673.369,114.109,640.601,66.572C611.308,24.077,555.031,22.353,503.43,21.238C448.802,20.057,386.61,15.43,355.591,60.413C321.558,109.768,327.597,178.195,360.761,228.138C390.974,273.636,448.814,283.058,503.43,283.049" fill="rgba(241, 228, 0, 1)" class="triangle-float1"></path></g><defs><mask id="SvgjsMask1002"><rect width="1440" height="560" fill="#ffffff"></rect></mask><style>
                @keyframes float1 {
                    0%{transform: translate(0, 0)}
                    50%{transform: translate(-10px, 0)}
                    100%{transform: translate(0, 0)}
                }

                .triangle-float1 {
                    animation: float1 5s infinite;
                }

                @keyframes float2 {
                    0%{transform: translate(0, 0)}
                    50%{transform: translate(-5px, -5px)}
                    100%{transform: translate(0, 0)}
                }

                .triangle-float2 {
                    animation: float2 4s infinite;
                }

                @keyframes float3 {
                    0%{transform: translate(0, 0)}
                    50%{transform: translate(0, -10px)}
                    100%{transform: translate(0, 0)}
                }

                .triangle-float3 {
                    animation: float3 6s infinite;
                }
            </style></defs></svg>