<svg id="visual" viewBox="0 0 675 900" width="675" height="900" xmlns="http://www.w3.org/2000/svg" xmlns:xlink="http://www.w3.org/1999/xlink" version="1.1"><rect x="0" y="0" width="675" height="900" fill="#FFFFFF"></rect><defs><linearGradient id="grad1_0" x1="0%" y1="100%" x2="100%" y2="0%"><stop offset="30%" stop-color="#ffffff" stop-opacity="1"></stop><stop offset="70%" stop-color="#ffffff" stop-opacity="1"></stop></linearGradient></defs><defs><linearGradient id="grad2_0" x1="0%" y1="100%" x2="100%" y2="0%"><stop offset="30%" stop-color="#ffffff" stop-opacity="1"></stop><stop offset="70%" stop-color="#ffffff" stop-opacity="1"></stop></linearGradient></defs><g transform="translate(675, 900)"><path d="M-421.9 0C-392.1 -31.1 -362.4 -62.2 -346.8 -92.9C-331.1 -123.6 -329.6 -153.9 -323.9 -187C-318.1 -220.1 -308.2 -255.9 -289.9 -289.9C-271.7 -323.9 -245.2 -356 -210.9 -365.4C-176.7 -374.7 -134.8 -361.4 -98.4 -367.1C-61.9 -372.7 -31 -397.3 0 -421.9L0 0Z" fill="#f1e400"></path></g><g transform="translate(0, 0)"><path d="M421.9 0C399.8 32.3 377.8 64.7 369 98.9C360.2 133.1 364.5 169.1 355.9 205.5C347.3 241.9 325.8 278.7 292 292C258.3 305.4 212.3 295.4 182 315.2C151.7 335.1 136.9 384.8 109.2 407.5C81.5 430.2 40.7 426.1 0 421.9L0 0Z" fill="#f1e400"></path></g></svg>