<svg id="visual" viewBox="0 0 3000 1000" width="3000" height="1000" xmlns="http://www.w3.org/2000/svg" xmlns:xlink="http://www.w3.org/1999/xlink" version="1.1"><path d="M0 91L71.5 86C143 81 286 71 428.8 79.3C571.7 87.7 714.3 114.3 857.2 122.7C1000 131 1143 121 1285.8 122.7C1428.7 124.3 1571.3 137.7 1714.2 147.7C1857 157.7 2000 164.3 2142.8 154.3C2285.7 144.3 2428.3 117.7 2571.2 112.7C2714 107.7 2857 124.3 2928.5 132.7L3000 141L3000 0L2928.5 0C2857 0 2714 0 2571.2 0C2428.3 0 2285.7 0 2142.8 0C2000 0 1857 0 1714.2 0C1571.3 0 1428.7 0 1285.8 0C1143 0 1000 0 857.2 0C714.3 0 571.7 0 428.8 0C286 0 143 0 71.5 0L0 0Z" fill="#ffffff"></path><path d="M0 181L71.5 182.7C143 184.3 286 187.7 428.8 216C571.7 244.3 714.3 297.7 857.2 326C1000 354.3 1143 357.7 1285.8 351C1428.7 344.3 1571.3 327.7 1714.2 331C1857 334.3 2000 357.7 2142.8 352.7C2285.7 347.7 2428.3 314.3 2571.2 311C2714 307.7 2857 334.3 2928.5 347.7L3000 361L3000 139L2928.5 130.7C2857 122.3 2714 105.7 2571.2 110.7C2428.3 115.7 2285.7 142.3 2142.8 152.3C2000 162.3 1857 155.7 1714.2 145.7C1571.3 135.7 1428.7 122.3 1285.8 120.7C1143 119 1000 129 857.2 120.7C714.3 112.3 571.7 85.7 428.8 77.3C286 69 143 79 71.5 84L0 89Z" fill="#bdc4ca"></path><path d="M0 491L71.5 502.7C143 514.3 286 537.7 428.8 549.3C571.7 561 714.3 561 857.2 572.7C1000 584.3 1143 607.7 1285.8 621C1428.7 634.3 1571.3 637.7 1714.2 632.7C1857 627.7 2000 614.3 2142.8 604.3C2285.7 594.3 2428.3 587.7 2571.2 612.7C2714 637.7 2857 694.3 2928.5 722.7L3000 751L3000 359L2928.5 345.7C2857 332.3 2714 305.7 2571.2 309C2428.3 312.3 2285.7 345.7 2142.8 350.7C2000 355.7 1857 332.3 1714.2 329C1571.3 325.7 1428.7 342.3 1285.8 349C1143 355.7 1000 352.3 857.2 324C714.3 295.7 571.7 242.3 428.8 214C286 185.7 143 182.3 71.5 180.7L0 179Z" fill="#7e8d97"></path><path d="M0 701L71.5 709.3C143 717.7 286 734.3 428.8 742.7C571.7 751 714.3 751 857.2 757.7C1000 764.3 1143 777.7 1285.8 787.7C1428.7 797.7 1571.3 804.3 1714.2 792.7C1857 781 2000 751 2142.8 746C2285.7 741 2428.3 761 2571.2 784.3C2714 807.7 2857 834.3 2928.5 847.7L3000 861L3000 749L2928.5 720.7C2857 692.3 2714 635.7 2571.2 610.7C2428.3 585.7 2285.7 592.3 2142.8 602.3C2000 612.3 1857 625.7 1714.2 630.7C1571.3 635.7 1428.7 632.3 1285.8 619C1143 605.7 1000 582.3 857.2 570.7C714.3 559 571.7 559 428.8 547.3C286 535.7 143 512.3 71.5 500.7L0 489Z" fill="#435967"></path><path d="M0 1001L71.5 1001C143 1001 286 1001 428.8 1001C571.7 1001 714.3 1001 857.2 1001C1000 1001 1143 1001 1285.8 1001C1428.7 1001 1571.3 1001 1714.2 1001C1857 1001 2000 1001 2142.8 1001C2285.7 1001 2428.3 1001 2571.2 1001C2714 1001 2857 1001 2928.5 1001L3000 1001L3000 859L2928.5 845.7C2857 832.3 2714 805.7 2571.2 782.3C2428.3 759 2285.7 739 2142.8 744C2000 749 1857 779 1714.2 790.7C1571.3 802.3 1428.7 795.7 1285.8 785.7C1143 775.7 1000 762.3 857.2 755.7C714.3 749 571.7 749 428.8 740.7C286 732.3 143 715.7 71.5 707.3L0 699Z" fill="#042a3b"></path></svg>