<?xml version="1.0" standalone="no"?>
<!DOCTYPE svg PUBLIC "-//W3C//DTD SVG 20010904//EN"
 "http://www.w3.org/TR/2001/REC-SVG-20010904/DTD/svg10.dtd">
<svg version="1.0" xmlns="http://www.w3.org/2000/svg"
 width="1132.000000pt" height="1132.000000pt" viewBox="0 0 1132.000000 1132.000000"
 preserveAspectRatio="xMidYMid meet">

<g transform="translate(0.000000,1132.000000) scale(0.100000,-0.100000)"
fill="#000000" stroke="none">
<path d="M5275 10310 c-523 -15 -1071 -75 -1440 -159 -49 -11 -128 -29 -175
-40 -172 -39 -401 -110 -668 -206 -80 -28 -364 -164 -476 -226 -316 -176 -615
-413 -825 -653 -70 -80 -216 -273 -258 -342 -151 -244 -260 -486 -330 -734
-80 -285 -97 -381 -134 -750 -15 -158 -7 -578 15 -785 18 -169 58 -425 87
-560 95 -448 161 -681 316 -1115 62 -172 203 -518 264 -650 22 -47 50 -107 62
-134 111 -250 407 -801 553 -1031 24 -38 47 -77 51 -85 25 -57 433 -667 533
-795 25 -33 61 -82 80 -110 18 -27 36 -52 40 -55 3 -3 39 -50 80 -105 273
-366 639 -744 924 -954 113 -83 196 -141 202 -141 3 0 27 -14 53 -31 95 -65
335 -180 461 -222 276 -92 409 -107 950 -107 489 1 622 15 887 96 208 63 542
230 740 371 22 15 62 44 89 62 210 148 549 467 739 696 129 154 253 319 462
608 40 56 193 282 303 447 5 8 20 31 33 50 84 126 337 555 417 705 23 44 57
107 75 140 157 286 410 847 523 1155 170 467 253 755 346 1195 44 204 80 446
97 651 16 179 16 644 0 799 -75 749 -357 1382 -822 1845 -98 97 -174 168 -223
205 -22 17 -53 42 -70 56 -181 151 -556 363 -856 484 -241 97 -536 188 -815
249 -66 15 -138 31 -160 36 -45 11 -185 35 -320 56 -49 7 -182 22 -295 34
-113 11 -250 25 -305 30 -109 12 -687 30 -855 28 -58 -1 -217 -5 -355 -8z
m840 -260 c841 -36 1488 -151 2064 -366 313 -117 626 -285 866 -465 91 -68
305 -258 360 -320 259 -289 454 -634 558 -984 47 -158 56 -191 76 -295 103
-520 86 -1133 -48 -1765 -30 -142 -30 -143 -70 -167 -20 -12 -52 -34 -71 -49
-38 -29 -125 -59 -172 -59 -27 0 -169 53 -195 73 -9 6 -13 40 -13 103 0 83 2
94 20 104 30 16 25 39 -24 101 -103 131 -207 127 -315 -9 -41 -53 -48 -82 -21
-89 19 -5 21 -11 18 -67 l-3 -61 -180 -5 c-171 -5 -183 -7 -245 -34 -49 -22
-88 -30 -160 -35 -84 -7 -109 -13 -216 -59 -110 -47 -127 -52 -196 -52 -191 0
-571 -110 -737 -214 l-92 -57 -82 3 -82 3 -5 1010 -5 1010 -38 95 c-38 94 -68
173 -224 605 -44 121 -106 288 -138 370 -31 83 -64 168 -72 190 -9 22 -19 49
-23 60 -5 11 -17 45 -28 75 -54 149 -44 135 -101 138 -28 2 -51 2 -51 0 0 -2
-32 -95 -70 -208 -39 -113 -106 -311 -150 -440 -43 -129 -130 -381 -192 -560
l-113 -325 -5 -1010 -5 -1010 -92 -3 c-73 -2 -100 1 -135 16 -24 11 -59 25
-78 32 -19 7 -44 16 -55 21 -127 54 -347 130 -410 143 -187 36 -416 55 -780
62 -279 6 -280 6 -377 -20 -70 -19 -120 -26 -186 -26 -65 0 -113 -7 -173 -24
-46 -14 -147 -40 -224 -60 -77 -19 -167 -47 -200 -62 -44 -20 -82 -28 -142
-32 -74 -4 -82 -3 -92 16 -6 12 -28 34 -48 49 -36 27 -40 28 -202 34 -156 5
-169 7 -216 32 -59 32 -151 49 -217 41 -96 -13 -148 -70 -148 -164 0 -35 -9
-76 -25 -115 -31 -77 -36 -199 -8 -210 10 -3 864 -1 1899 6 1034 7 1888 10
1897 6 16 -6 17 -45 15 -524 l-3 -518 -112 -3 -113 -3 0 65 c0 60 -2 66 -22
70 -13 3 -117 7 -233 10 l-210 5 -28 31 c-15 17 -37 34 -50 38 -12 5 -92 9
-177 11 -85 1 -174 4 -197 7 -41 6 -42 7 -45 48 -3 37 -6 41 -32 44 -34 4 -46
-10 -46 -54 0 -36 -16 -44 -92 -44 -75 0 -98 -13 -98 -56 l0 -36 -149 3 c-83
2 -151 1 -153 -1 -2 -3 -8 -18 -13 -34 -6 -16 -19 -34 -30 -40 -31 -17 -35
-27 -35 -98 0 -65 -1 -68 -26 -74 -15 -4 -47 -3 -73 2 l-46 9 -3 77 -3 77
-427 -2 -427 -2 -5 30 -5 30 -265 6 -265 6 -147 72 c-145 70 -148 72 -173 122
-31 60 -54 71 -115 53 -48 -15 -266 -19 -287 -6 -7 4 -20 26 -29 47 -9 22 -22
54 -29 70 -49 109 -173 446 -247 670 -91 276 -185 653 -227 905 -106 635 -105
1163 4 1655 14 66 32 138 40 160 7 22 25 78 40 125 246 755 833 1338 1685
1673 234 92 232 91 570 185 593 165 1587 250 2475 212z m2395 -5053 c0 -24 -5
-48 -12 -55 -8 -8 -62 -12 -175 -12 l-163 0 -42 -39 c-29 -28 -71 -51 -137
-77 -116 -44 -402 -117 -526 -133 -49 -7 -105 -14 -122 -17 l-33 -5 -2 -187
-3 -187 -70 0 -70 0 0 360 c0 198 3 368 7 378 7 16 49 17 678 17 l670 0 0 -43z
m-4497 -1421 c65 -19 104 -51 131 -104 29 -57 29 -59 27 -454 l-1 -318 -69 0
c-107 0 -101 -9 -101 151 0 125 -2 139 -17 140 -57 4 -126 3 -134 -1 -4 -3
-10 -69 -11 -145 l-3 -140 -77 -3 c-74 -3 -78 -2 -83 21 -4 13 -5 174 -3 358
3 360 6 378 61 437 59 64 179 89 280 58z m2444 -9 c92 -48 136 -135 131 -258
l-3 -74 -81 -3 -81 -3 -6 83 c-8 96 -24 118 -87 118 -30 0 -43 -6 -59 -26 -20
-25 -21 -39 -21 -269 0 -230 1 -244 21 -269 16 -20 29 -26 57 -26 66 1 92 42
92 148 l0 53 83 -3 82 -3 3 -69 c4 -92 -19 -164 -68 -212 -96 -96 -283 -96
-375 0 -61 63 -65 87 -65 392 0 239 2 274 19 309 42 92 128 138 251 132 45 -2
88 -10 107 -20z m-2981 -25 c46 -27 89 -87 105 -147 18 -66 5 -187 -25 -240
-47 -79 -135 -125 -241 -125 -30 0 -56 -1 -57 -2 0 -2 -4 -75 -7 -163 l-6
-160 -75 0 -75 0 -3 420 c-2 391 -1 421 15 433 14 10 56 13 173 10 141 -3 159
-5 196 -26z m1150 7 c61 -23 104 -62 138 -124 20 -38 21 -53 21 -285 0 -271
-2 -282 -67 -356 -57 -64 -101 -78 -273 -82 -126 -3 -153 -2 -163 11 -19 23
-13 817 7 840 11 14 35 17 147 17 111 0 143 -4 190 -21z m712 -61 l3 -78 -130
0 c-158 0 -161 -2 -161 -98 0 -37 4 -72 8 -79 5 -8 45 -13 117 -15 l110 -3 3
-77 3 -77 -118 -3 -118 -3 0 -90 0 -90 145 -5 145 -5 0 -80 0 -80 -230 0 -230
0 0 423 c0 365 2 424 15 432 9 6 103 9 225 7 l210 -2 3 -77z m257 59 c4 -13 4
-162 2 -331 -3 -170 -2 -317 0 -327 5 -16 18 -19 117 -21 l111 -3 0 -80 0 -80
-180 -3 c-99 -1 -190 0 -202 3 l-23 5 0 414 c0 364 2 417 16 430 11 12 35 16
85 16 63 0 69 -2 74 -23z m1245 -327 l5 -345 110 -5 110 -5 0 -80 0 -80 -195
0 -195 0 -3 417 c-3 484 -10 451 97 446 l66 -3 5 -345z m464 334 c3 -9 6 -161
6 -338 0 -312 1 -324 21 -350 20 -26 70 -36 94 -18 39 28 40 36 45 381 l5 336
80 0 80 0 3 -334 c3 -380 -2 -413 -63 -474 -42 -42 -128 -77 -188 -77 -53 1
-135 29 -175 60 -17 14 -41 48 -54 75 -22 49 -23 56 -23 386 0 270 3 339 14
352 19 24 146 24 155 1z m784 1 c103 -31 151 -101 152 -218 0 -76 -18 -128
-57 -170 l-27 -27 36 -38 c65 -66 76 -198 24 -285 -56 -96 -102 -112 -316
-112 l-165 0 0 423 c0 365 2 424 15 432 25 16 279 12 338 -5z m368 -1070 c12
-30 -420 -615 -636 -860 -48 -55 -285 -292 -340 -340 -449 -396 -889 -624
-1332 -690 -117 -18 -867 -21 -1013 -5 -307 34 -633 171 -948 397 -222 160
-410 334 -662 613 -67 74 -193 234 -340 430 -240 321 -328 447 -320 460 4 6
1046 9 2796 10 2451 0 2790 -2 2795 -15z"/>
<path d="M1660 5687 c-15 -7 -31 -29 -39 -54 -23 -64 3 -119 104 -220 44 -46
86 -83 91 -83 18 0 142 120 173 167 55 83 38 181 -34 199 -34 8 -90 -3 -105
-21 -17 -20 -40 -18 -70 5 -29 22 -83 26 -120 7z"/>
<path d="M3869 3411 c-22 -18 -24 -28 -27 -129 -4 -130 0 -135 96 -130 l57 3
3 115 c2 105 1 118 -18 138 -26 28 -79 29 -111 3z"/>
<path d="M3261 3412 c-7 -13 -10 -56 -7 -114 3 -51 5 -99 5 -105 1 -9 18 -13
52 -13 43 0 55 5 80 29 26 26 29 36 29 93 0 86 -25 119 -97 125 -44 5 -53 3
-62 -15z"/>
<path d="M4448 3163 c-4 -326 -5 -313 41 -313 59 0 104 29 118 75 17 60 17
386 -1 429 -19 46 -52 66 -108 66 l-47 0 -3 -257z"/>
<path d="M7902 3318 l3 -103 42 -3 c61 -4 109 21 124 65 14 43 5 90 -23 120
-18 19 -32 23 -85 23 l-64 0 3 -102z"/>
<path d="M7904 3057 c-3 -8 -3 -56 -2 -108 l3 -94 44 -3 c24 -2 57 2 73 9 75
31 77 164 2 195 -43 18 -113 18 -120 1z"/>
<path d="M6916 2369 c-59 -9 -116 -52 -133 -100 -8 -22 -12 -107 -12 -239 -1
-195 0 -207 22 -245 36 -64 77 -85 164 -85 86 0 120 14 160 67 l28 36 3 218
c3 244 -1 267 -60 313 -42 31 -106 44 -172 35z m98 -131 c13 -18 16 -56 16
-209 l0 -188 -26 -20 c-35 -27 -59 -26 -89 4 -25 24 -25 26 -25 207 0 213 5
228 70 228 29 0 43 -6 54 -22z"/>
<path d="M4272 2353 c-47 -23 -80 -67 -87 -116 -3 -23 -5 -150 -3 -282 l3
-240 55 0 55 0 5 105 5 105 60 0 60 0 5 -105 5 -105 39 -3 c22 -2 50 -1 63 2
l23 6 0 243 c0 136 -5 258 -10 279 -13 44 -52 93 -91 113 -38 20 -145 19 -187
-2z m132 -104 c26 -20 27 -24 24 -112 l-3 -92 -37 -2 c-20 -2 -48 1 -62 7 -25
9 -26 13 -26 90 0 73 3 83 25 105 30 30 45 31 79 4z"/>
<path d="M5080 2348 c-33 -17 -51 -35 -67 -68 -22 -41 -23 -57 -23 -246 0
-191 1 -203 23 -245 57 -107 235 -126 316 -34 35 40 43 85 39 205 l-3 85 -82
3 -83 3 0 -45 c0 -40 3 -46 25 -52 23 -6 25 -11 25 -59 0 -46 -4 -56 -27 -75
-19 -15 -35 -19 -53 -15 -53 13 -55 20 -55 231 0 194 0 196 24 215 49 40 108
3 113 -70 l3 -46 55 0 55 0 -1 73 c0 66 -3 75 -30 103 -39 42 -82 59 -152 59
-40 0 -71 -7 -102 -22z"/>
<path d="M4652 2348 c-9 -9 -12 -89 -12 -325 l0 -314 148 3 147 3 3 49 c4 60
-5 67 -79 59 -103 -10 -98 -22 -101 275 l-3 257 -45 3 c-26 2 -50 -2 -58 -10z"/>
<path d="M5454 2343 c-9 -20 -16 -560 -7 -606 5 -27 6 -28 61 -25 l57 3 5 140
5 140 60 0 60 0 5 -140 5 -140 55 0 55 0 0 320 0 320 -55 0 -55 0 -3 -117 c-3
-132 -3 -133 -88 -126 l-39 3 -5 120 -5 120 -51 3 c-42 2 -53 -1 -60 -15z"/>
<path d="M5917 2353 c-4 -3 -7 -150 -7 -325 l0 -318 170 0 171 0 -3 58 -3 57
-108 3 -108 3 3 72 3 72 85 5 85 5 0 50 0 50 -85 5 -85 5 0 70 0 70 101 3
c114 3 114 3 106 80 l-4 42 -157 0 c-87 0 -161 -3 -164 -7z"/>
<path d="M6330 2350 c-13 -8 -15 -53 -17 -287 -1 -153 0 -295 3 -315 l6 -38
54 0 54 0 0 108 c0 146 2 152 55 152 68 0 79 -21 83 -151 l4 -110 56 3 57 3 3
95 c4 118 -1 147 -33 184 -14 16 -25 30 -25 32 0 2 11 15 24 29 81 87 38 264
-72 294 -46 13 -232 14 -252 1z m220 -108 c31 -25 37 -88 11 -129 -22 -35 -56
-49 -95 -39 -20 5 -26 14 -32 51 -3 25 -3 65 0 90 l7 45 44 0 c26 0 51 -7 65
-18z"/>
<path d="M4817 1223 c-48 -131 -87 -242 -87 -246 0 -4 30 -7 67 -5 66 3 67 3
77 36 l9 32 88 0 89 0 14 -35 c15 -35 16 -35 75 -35 44 0 61 4 61 13 0 14 -42
138 -85 252 -15 39 -39 104 -53 145 l-27 75 -70 3 -71 3 -87 -238z m187 23
c14 -46 26 -88 26 -94 0 -12 -73 -20 -99 -10 -20 7 -20 8 1 75 11 37 22 78 25
91 9 39 20 24 47 -62z"/>
<path d="M5483 1440 c-41 -25 -63 -59 -70 -109 -11 -81 27 -123 147 -161 92
-29 109 -50 73 -86 -15 -14 -31 -16 -115 -10 l-98 6 0 -37 c0 -67 13 -73 150
-74 148 -1 191 29 198 135 6 85 -14 106 -133 149 -80 29 -90 35 -93 59 -5 39
25 51 122 46 l81 -3 -2 40 c-4 66 -2 65 -120 65 -89 0 -114 -3 -140 -20z"/>
<path d="M5997 1453 c-4 -3 -7 -114 -7 -245 l0 -238 133 0 c177 1 229 24 263
117 16 45 18 193 4 245 -14 49 -54 95 -97 113 -37 15 -283 22 -296 8z m231
-94 c39 -13 52 -49 52 -144 0 -100 -13 -132 -58 -146 -21 -6 -53 -9 -72 -7
l-35 3 -3 140 c-1 76 0 145 2 152 6 16 71 17 114 2z"/>
<path d="M5261 1046 c-21 -25 -9 -69 21 -77 53 -14 99 38 68 77 -16 18 -74 18
-89 0z"/>
<path d="M5842 1048 c-13 -13 -15 -37 -6 -62 4 -11 19 -16 43 -16 42 0 61 14
61 45 0 12 -5 26 -12 33 -16 16 -70 16 -86 0z"/>
<path d="M6462 1048 c-7 -7 -12 -21 -12 -33 0 -30 19 -45 55 -45 36 0 55 15
55 45 0 12 -5 26 -12 33 -16 16 -70 16 -86 0z"/>
</g>
</svg>
