<svg xmlns="http://www.w3.org/2000/svg" version="1.1" xmlns:xlink="http://www.w3.org/1999/xlink" xmlns:svgjs="http://svgjs.dev/svgjs" width="1440" height="560" preserveAspectRatio="none" viewBox="0 0 1440 560"><g mask="url(&quot;#SvgjsMask1074&quot;)" fill="none"><path d="M427.343,699.001C472.306,700.161,517.578,678.42,537.536,638.113C555.917,600.992,535.335,559.958,513.674,524.65C493.355,491.529,466.149,460.491,427.343,458.498C385.381,456.343,345.192,478.547,324.151,514.916C303.08,551.338,306.003,595.966,326.578,632.67C347.652,670.265,384.258,697.889,427.343,699.001" fill="rgba(241, 228, 0, 1)" class="triangle-float1"></path><path d="M626.63,424.178C649.468,424.02,673.059,415.583,683.7,395.374C693.822,376.151,684.31,354.209,673.346,335.453C662.522,316.936,648.072,298.287,626.63,297.744C604.491,297.184,586.938,313.939,575.63,332.98C564.022,352.526,557.08,376.332,568.176,396.173C579.479,416.384,603.474,424.338,626.63,424.178" fill="rgba(241, 228, 0, 1)" class="triangle-float2"></path><path d="M889.767,104.635C910.265,105.306,932.707,98.821,941.831,80.453C950.382,63.239,937.987,44.72,927.543,28.584C918.348,14.378,906.689,0.103,889.767,0.011C872.728,-0.081,860.064,13.572,851.277,28.171C842.12,43.384,835.308,61.366,843.292,77.226C851.959,94.444,870.501,104.004,889.767,104.635" fill="rgba(241, 228, 0, 1)" class="triangle-float1"></path><path d="M740.574,308.144C788.506,310.431,841.483,298.636,864.601,256.585C887.19,215.495,863.861,167.936,839.769,127.708C816.581,88.988,785.704,49.873,740.574,49.487C694.973,49.097,659.927,85.785,638.392,125.983C618.197,163.68,614.562,208.353,635.484,245.652C656.854,283.749,696.942,306.062,740.574,308.144" fill="rgba(241, 228, 0, 1)" class="triangle-float3"></path><path d="M1039.3 454.56 a155.03 155.03 0 1 0 310.06 0 a155.03 155.03 0 1 0 -310.06 0z" fill="rgba(241, 228, 0, 1)" class="triangle-float1"></path><path d="M475.82 151.25 a136 136 0 1 0 272 0 a136 136 0 1 0 -272 0z" fill="rgba(241, 228, 0, 1)" class="triangle-float1"></path><path d="M1126.334,294.781C1165.514,294.586,1201.517,276.813,1223.863,244.63C1250.379,206.441,1270.008,158.918,1249.711,117.09C1227.317,70.939,1177.595,41.726,1126.334,43.643C1077.794,45.459,1039.39,82.162,1017.971,125.758C999.035,164.3,1003.93,209.46,1027.107,245.611C1048.461,278.918,1086.77,294.978,1126.334,294.781" fill="rgba(241, 228, 0, 1)" class="triangle-float3"></path><path d="M772.537,487.371C799.546,487.77,823.186,471.02,836.945,447.775C850.992,424.044,855.315,394.639,841.582,370.725C827.801,346.727,800.149,333.782,772.537,335.616C747.632,337.27,729.847,357.124,717.738,378.95C706.078,399.967,700.498,424.469,711.34,445.92C723.252,469.488,746.133,486.981,772.537,487.371" fill="rgba(241, 228, 0, 1)" class="triangle-float1"></path></g><defs><mask id="SvgjsMask1074"><rect width="1440" height="560" fill="#ffffff"></rect></mask><style>
                @keyframes float1 {
                    0%{transform: translate(0, 0)}
                    50%{transform: translate(-10px, 0)}
                    100%{transform: translate(0, 0)}
                }

                .triangle-float1 {
                    animation: float1 5s infinite;
                }

                @keyframes float2 {
                    0%{transform: translate(0, 0)}
                    50%{transform: translate(-5px, -5px)}
                    100%{transform: translate(0, 0)}
                }

                .triangle-float2 {
                    animation: float2 4s infinite;
                }

                @keyframes float3 {
                    0%{transform: translate(0, 0)}
                    50%{transform: translate(0, -10px)}
                    100%{transform: translate(0, 0)}
                }

                .triangle-float3 {
                    animation: float3 6s infinite;
                }
            </style></defs></svg>