<svg xmlns="http://www.w3.org/2000/svg" version="1.1" xmlns:xlink="http://www.w3.org/1999/xlink" xmlns:svgjs="http://svgjs.dev/svgjs" width="1440" height="560" preserveAspectRatio="none" viewBox="0 0 1440 560"><g mask="url(&quot;#SvgjsMask1083&quot;)" fill="none"><path d="M79.651,180.017C101.508,180.942,122.744,169.359,133.062,150.068C142.894,131.687,137.555,109.861,126.692,92.071C116.356,75.145,99.471,63.275,79.651,62.599C58.579,61.88,36.916,70.216,26.7,88.66C16.729,106.662,23.217,128.05,33.536,145.855C43.817,163.594,59.166,179.15,79.651,180.017" fill="rgba(241, 228, 0, 1)" class="triangle-float3"></path><path d="M1249.495,537.834C1272.891,537.15,1296.705,531.91,1309.964,512.622C1325.125,490.567,1331.251,461.411,1318.022,438.146C1304.676,414.676,1276.426,404.366,1249.495,406.283C1225.576,407.985,1208.465,426.341,1196.008,446.83C1182.868,468.443,1169.764,494.537,1182.581,516.343C1195.304,537.99,1224.397,538.567,1249.495,537.834" fill="rgba(241, 228, 0, 1)" class="triangle-float1"></path><path d="M961.138,736.869C1024.776,737.101,1085.596,707.387,1118.116,652.686C1151.343,596.796,1151.845,527.03,1119.381,470.693C1086.871,414.276,1025.991,374.454,961.138,380.271C903.096,385.477,874.366,444.667,845.455,495.265C816.892,545.254,781.27,599.619,806.134,651.547C833.433,708.561,897.925,736.638,961.138,736.869" fill="rgba(241, 228, 0, 1)" class="triangle-float1"></path><path d="M420.288,247.817C465.324,247.926,502.016,214.014,522.348,173.829C540.734,137.491,536.227,94.985,515.287,60.056C494.986,26.192,459.72,5.591,420.288,3.587C376.659,1.369,329.316,11.944,306.945,49.466C284.173,87.66,297.016,134.729,319.078,173.337C341.352,212.316,375.394,247.708,420.288,247.817" fill="rgba(241, 228, 0, 1)" class="triangle-float3"></path><path d="M892.801,214.345C912.167,213.49,931.187,205.756,940.707,188.87C950.079,172.247,945.971,152.524,937.212,135.57C927.473,116.718,913.98,97.442,892.801,96.136C869.864,94.722,849.207,109.505,837.769,129.438C826.386,149.275,824.522,174.258,836.961,193.45C848.546,211.325,871.521,215.285,892.801,214.345" fill="rgba(241, 228, 0, 1)" class="triangle-float2"></path><path d="M73.741,326.36C101.414,327.409,129.896,318.965,144.94,295.715C161.233,270.535,163.083,237.657,147.858,211.817C132.839,186.326,103.27,173.02,73.741,174.872C47.043,176.546,26.844,196.657,14.149,220.203C2.195,242.374,-1.012,268.684,11.318,290.648C23.895,313.052,48.066,325.386,73.741,326.36" fill="rgba(241, 228, 0, 1)" class="triangle-float2"></path><path d="M881.021,387.017C901.938,385.725,913.886,365.713,924.506,347.646C935.344,329.208,948.718,308.147,938.393,289.417C927.876,270.34,902.805,268.752,881.021,268.766C859.271,268.78,835.438,271.131,823.779,289.492C811.473,308.872,815.496,333.863,827.117,353.662C838.581,373.193,858.417,388.413,881.021,387.017" fill="rgba(241, 228, 0, 1)" class="triangle-float2"></path><path d="M1380.966,428.346C1413.891,428.046,1443.012,408.409,1459.302,379.795C1475.413,351.495,1476.058,317.257,1460.491,288.655C1444.189,258.702,1414.974,233.327,1380.966,235.863C1349.565,238.204,1334.937,271.638,1319.633,299.157C1304.982,325.502,1287.187,354.015,1300.116,381.247C1314.453,411.445,1347.538,428.651,1380.966,428.346" fill="rgba(241, 228, 0, 1)" class="triangle-float1"></path><path d="M469.423,735.033C517.348,732.255,559.956,708.982,586.401,668.918C616.316,623.597,637.319,567.106,611.965,519.084C585.348,468.67,526.28,443.195,469.423,447.358C418.599,451.079,385.333,493.999,358.964,537.607C331.239,583.458,300.174,637.231,326.336,683.992C352.837,731.357,415.239,738.174,469.423,735.033" fill="rgba(241, 228, 0, 1)" class="triangle-float3"></path><path d="M1177.282,231.7C1192.557,231.395,1202.679,217.357,1209.667,203.771C1215.948,191.561,1217.831,177.508,1211.398,165.377C1204.542,152.449,1191.916,142.709,1177.282,142.705C1162.642,142.701,1150.252,152.566,1143.136,165.36C1136.232,177.773,1136.073,192.483,1142.573,205.112C1149.721,219,1161.665,232.012,1177.282,231.7" fill="rgba(241, 228, 0, 1)" class="triangle-float1"></path><path d="M602.489,327.163C630.946,328.793,659.458,314.148,672.425,288.764C684.525,265.078,673.031,238.371,659.564,215.434C646.328,192.891,628.59,171.097,602.489,169.649C574.19,168.079,546.204,183.203,533.277,208.426C521.218,231.957,531.863,258.631,545.179,281.474C558.366,304.096,576.347,325.665,602.489,327.163" fill="rgba(241, 228, 0, 1)" class="triangle-float1"></path><path d="M921.333,391.226C975.4,394.623,1032.735,376.663,1059.99,329.845C1087.376,282.803,1071.098,226.149,1045.353,178.189C1017.715,126.702,979.688,74.618,921.333,71.545C858.833,68.254,798.547,106.944,772.42,163.817C749.316,214.11,779.569,267.832,809.889,314.134C836.411,354.636,873.015,388.191,921.333,391.226" fill="rgba(241, 228, 0, 1)" class="triangle-float3"></path><path d="M276.272,682.951C320.977,679.973,353.396,645.526,375.897,606.782C398.528,567.814,413.832,521.824,393.08,481.824C370.919,439.108,324.35,412.701,276.272,414.752C231.154,416.676,198.96,452.495,175.535,491.103C150.882,531.736,128.564,579.707,150.659,621.786C173.864,665.979,226.467,686.269,276.272,682.951" fill="rgba(241, 228, 0, 1)" class="triangle-float2"></path><path d="M405.746,326.75C430.336,327.152,457.871,324.368,470.441,303.23C483.193,281.785,473.174,255.758,460.868,234.054C448.337,211.952,431.152,189.376,405.746,189.124C380.047,188.869,361.007,210.381,348.698,232.942C337.002,254.38,331.922,280.309,344.611,301.175C356.913,321.404,382.073,326.363,405.746,326.75" fill="rgba(241, 228, 0, 1)" class="triangle-float3"></path><path d="M1252.232,445.382C1301.263,447.682,1348.585,421.79,1372.469,378.907C1395.782,337.049,1389.784,285.327,1363.791,245.079C1339.906,208.095,1296.249,193.606,1252.232,192.732C1206.261,191.819,1155.831,200.737,1132.722,240.488C1109.532,280.379,1126.82,328.615,1150.068,368.472C1173.086,407.936,1206.596,443.241,1252.232,445.382" fill="rgba(241, 228, 0, 1)" class="triangle-float2"></path><path d="M1416.682,397.816C1448.859,395.753,1468.472,365.928,1483.935,337.635C1498.549,310.896,1510.97,279.555,1495.739,253.163C1480.505,226.765,1447.16,221.35,1416.682,221.098C1385.613,220.841,1352.549,225.975,1335.329,251.837C1316.412,280.247,1316.014,317.519,1332.63,347.334C1349.682,377.932,1381.725,400.057,1416.682,397.816" fill="rgba(241, 228, 0, 1)" class="triangle-float1"></path></g><defs><mask id="SvgjsMask1083"><rect width="1440" height="560" fill="#ffffff"></rect></mask><style>
                @keyframes float1 {
                    0%{transform: translate(0, 0)}
                    50%{transform: translate(-10px, 0)}
                    100%{transform: translate(0, 0)}
                }

                .triangle-float1 {
                    animation: float1 5s infinite;
                }

                @keyframes float2 {
                    0%{transform: translate(0, 0)}
                    50%{transform: translate(-5px, -5px)}
                    100%{transform: translate(0, 0)}
                }

                .triangle-float2 {
                    animation: float2 4s infinite;
                }

                @keyframes float3 {
                    0%{transform: translate(0, 0)}
                    50%{transform: translate(0, -10px)}
                    100%{transform: translate(0, 0)}
                }

                .triangle-float3 {
                    animation: float3 6s infinite;
                }
            </style></defs></svg>