<svg id="visual" viewBox="0 0 675 900" width="675" height="900" xmlns="http://www.w3.org/2000/svg" xmlns:xlink="http://www.w3.org/1999/xlink" version="1.1"><g stroke-width="1" stroke-linejoin="bevel"><path d="M334 474L357 501L358 485Z" fill="#f5e739" stroke="#f5e739"></path><path d="M334 474L269 555L357 501Z" fill="#ffffff" stroke="#ffffff"></path><path d="M269 555L317 585L357 501Z" fill="#fff9d6" stroke="#fff9d6"></path><path d="M317 585L362 587L357 501Z" fill="#fbec6e" stroke="#fbec6e"></path><path d="M357 501L425 542L358 485Z" fill="#f5e739" stroke="#f5e739"></path><path d="M362 587L425 542L357 501Z" fill="#fff9d6" stroke="#fff9d6"></path><path d="M411 395L260 416L334 474Z" fill="#f5e739" stroke="#f5e739"></path><path d="M334 474L228 454L269 555Z" fill="#f8e956" stroke="#f8e956"></path><path d="M362 587L427 571L425 542Z" fill="#fffceb" stroke="#fffceb"></path><path d="M260 416L228 454L334 474Z" fill="#fff9d6" stroke="#fff9d6"></path><path d="M457 418L411 395L358 485Z" fill="#fff4ae" stroke="#fff4ae"></path><path d="M358 485L411 395L334 474Z" fill="#fffceb" stroke="#fffceb"></path><path d="M228 454L207 522L269 555Z" fill="#fdee84" stroke="#fdee84"></path><path d="M269 555L253 634L317 585Z" fill="#fffceb" stroke="#fffceb"></path><path d="M425 542L457 418L358 485Z" fill="#fbec6e" stroke="#fbec6e"></path><path d="M489 531L457 418L425 542Z" fill="#fff9d6" stroke="#fff9d6"></path><path d="M427 571L489 531L425 542Z" fill="#f1e400" stroke="#f1e400"></path><path d="M498 422L469 406L457 418Z" fill="#f1e400" stroke="#f1e400"></path><path d="M457 418L469 406L411 395Z" fill="#f8e956" stroke="#f8e956"></path><path d="M170 622L253 634L269 555Z" fill="#fff9d6" stroke="#fff9d6"></path><path d="M317 585L339 684L362 587Z" fill="#fdee84" stroke="#fdee84"></path><path d="M362 587L422 643L427 571Z" fill="#fbec6e" stroke="#fbec6e"></path><path d="M339 684L422 643L362 587Z" fill="#fbec6e" stroke="#fbec6e"></path><path d="M427 571L503 577L489 531Z" fill="#fff199" stroke="#fff199"></path><path d="M489 531L498 422L457 418Z" fill="#fff199" stroke="#fff199"></path><path d="M258 316L208 377L260 416Z" fill="#fff9d6" stroke="#fff9d6"></path><path d="M260 416L182 412L228 454Z" fill="#f5e739" stroke="#f5e739"></path><path d="M228 454L168 422L207 522Z" fill="#fff6c2" stroke="#fff6c2"></path><path d="M208 377L182 412L260 416Z" fill="#ffffff" stroke="#ffffff"></path><path d="M422 643L503 577L427 571Z" fill="#f1e400" stroke="#f1e400"></path><path d="M489 531L559 429L498 422Z" fill="#fbec6e" stroke="#fbec6e"></path><path d="M79 377L168 422L182 412Z" fill="#fff199" stroke="#fff199"></path><path d="M182 412L168 422L228 454Z" fill="#f5e739" stroke="#f5e739"></path><path d="M253 634L339 684L317 585Z" fill="#f8e956" stroke="#f8e956"></path><path d="M402 301L258 316L411 395Z" fill="#ffffff" stroke="#ffffff"></path><path d="M411 395L258 316L260 416Z" fill="#ffffff" stroke="#ffffff"></path><path d="M208 377L79 377L182 412Z" fill="#fdee84" stroke="#fdee84"></path><path d="M168 422L144 521L207 522Z" fill="#f8e956" stroke="#f8e956"></path><path d="M207 522L170 622L269 555Z" fill="#fff9d6" stroke="#fff9d6"></path><path d="M475 299L411 395L469 406Z" fill="#fdee84" stroke="#fdee84"></path><path d="M475 299L402 301L411 395Z" fill="#fdee84" stroke="#fdee84"></path><path d="M253 634L334 695L339 684Z" fill="#ffffff" stroke="#ffffff"></path><path d="M339 684L356 713L422 643Z" fill="#fff9d6" stroke="#fff9d6"></path><path d="M144 521L170 622L207 522Z" fill="#ffffff" stroke="#ffffff"></path><path d="M253 634L229 713L334 695Z" fill="#f5e739" stroke="#f5e739"></path><path d="M298 754L356 713L334 695Z" fill="#fdee84" stroke="#fdee84"></path><path d="M334 695L356 713L339 684Z" fill="#fffceb" stroke="#fffceb"></path><path d="M422 643L535 685L503 577Z" fill="#f5e739" stroke="#f5e739"></path><path d="M579 514L559 429L489 531Z" fill="#f1e400" stroke="#f1e400"></path><path d="M498 422L551 398L469 406Z" fill="#f5e739" stroke="#f5e739"></path><path d="M402 301L285 269L258 316Z" fill="#f5e739" stroke="#f5e739"></path><path d="M258 316L186 268L208 377Z" fill="#fff4ae" stroke="#fff4ae"></path><path d="M559 429L551 398L498 422Z" fill="#fdee84" stroke="#fdee84"></path><path d="M495 305L475 299L469 406Z" fill="#fff199" stroke="#fff199"></path><path d="M402 301L399 246L285 269Z" fill="#fff6c2" stroke="#fff6c2"></path><path d="M79 377L101 486L168 422Z" fill="#fbec6e" stroke="#fbec6e"></path><path d="M168 422L101 486L144 521Z" fill="#f1e400" stroke="#f1e400"></path><path d="M144 521L114 572L170 622Z" fill="#fbec6e" stroke="#fbec6e"></path><path d="M640 612L579 514L503 577Z" fill="#ffffff" stroke="#ffffff"></path><path d="M503 577L579 514L489 531Z" fill="#f5e739" stroke="#f5e739"></path><path d="M101 486L114 572L144 521Z" fill="#fff6c2" stroke="#fff6c2"></path><path d="M551 398L495 305L469 406Z" fill="#fff6c2" stroke="#fff6c2"></path><path d="M119 700L229 713L170 622Z" fill="#fff6c2" stroke="#fff6c2"></path><path d="M170 622L229 713L253 634Z" fill="#fdee84" stroke="#fdee84"></path><path d="M483 203L399 246L475 299Z" fill="#f1e400" stroke="#f1e400"></path><path d="M475 299L399 246L402 301Z" fill="#fffceb" stroke="#fffceb"></path><path d="M229 713L298 754L334 695Z" fill="#fff9d6" stroke="#fff9d6"></path><path d="M399 246L292 226L285 269Z" fill="#fbec6e" stroke="#fbec6e"></path><path d="M285 269L186 268L258 316Z" fill="#fffceb" stroke="#fffceb"></path><path d="M255 186L186 268L285 269Z" fill="#fdee84" stroke="#fdee84"></path><path d="M464 738L422 643L356 713Z" fill="#fff6c2" stroke="#fff6c2"></path><path d="M464 738L535 685L422 643Z" fill="#f5e739" stroke="#f5e739"></path><path d="M388 808L464 738L356 713Z" fill="#f5e739" stroke="#f5e739"></path><path d="M551 398L589 364L495 305Z" fill="#f8e956" stroke="#f8e956"></path><path d="M559 429L589 364L551 398Z" fill="#fdee84" stroke="#fdee84"></path><path d="M675 443L589 364L559 429Z" fill="#ffffff" stroke="#ffffff"></path><path d="M74 299L79 377L208 377Z" fill="#fff199" stroke="#fff199"></path><path d="M35 694L119 700L114 572Z" fill="#ffffff" stroke="#ffffff"></path><path d="M229 713L264 784L298 754Z" fill="#fbec6e" stroke="#fbec6e"></path><path d="M298 754L388 808L356 713Z" fill="#fdee84" stroke="#fdee84"></path><path d="M124 784L264 784L229 713Z" fill="#fdee84" stroke="#fdee84"></path><path d="M38 531L114 572L101 486Z" fill="#fff9d6" stroke="#fff9d6"></path><path d="M114 572L119 700L170 622Z" fill="#fff9d6" stroke="#fff9d6"></path><path d="M0 492L38 531L101 486Z" fill="#fff199" stroke="#fff199"></path><path d="M124 784L127 717L34 771Z" fill="#fbec6e" stroke="#fbec6e"></path><path d="M119 700L127 717L229 713Z" fill="#fbec6e" stroke="#fbec6e"></path><path d="M324 151L255 186L292 226Z" fill="#fff6c2" stroke="#fff6c2"></path><path d="M292 226L255 186L285 269Z" fill="#ffffff" stroke="#ffffff"></path><path d="M186 268L74 299L208 377Z" fill="#f1e400" stroke="#f1e400"></path><path d="M424 172L351 174L399 246Z" fill="#fff9d6" stroke="#fff9d6"></path><path d="M399 246L351 174L292 226Z" fill="#fff199" stroke="#fff199"></path><path d="M483 203L475 299L527 225Z" fill="#f8e956" stroke="#f8e956"></path><path d="M255 186L177 218L186 268Z" fill="#fbec6e" stroke="#fbec6e"></path><path d="M289 833L388 808L298 754Z" fill="#fff199" stroke="#fff199"></path><path d="M592 719L629 636L535 685Z" fill="#fbec6e" stroke="#fbec6e"></path><path d="M527 225L475 299L495 305Z" fill="#fdee84" stroke="#fdee84"></path><path d="M535 685L629 636L503 577Z" fill="#fff6c2" stroke="#fff6c2"></path><path d="M579 514L675 443L559 429Z" fill="#ffffff" stroke="#ffffff"></path><path d="M483 782L535 685L464 738Z" fill="#fff9d6" stroke="#fff9d6"></path><path d="M629 636L640 612L503 577Z" fill="#f1e400" stroke="#f1e400"></path><path d="M388 808L483 782L464 738Z" fill="#fff4ae" stroke="#fff4ae"></path><path d="M597 278L527 225L495 305Z" fill="#fff9d6" stroke="#fff9d6"></path><path d="M177 218L74 299L186 268Z" fill="#fbec6e" stroke="#fbec6e"></path><path d="M0 454L0 492L101 486Z" fill="#fbec6e" stroke="#fbec6e"></path><path d="M367 96L424 172L430 59Z" fill="#f8e956" stroke="#f8e956"></path><path d="M483 203L424 172L399 246Z" fill="#fbec6e" stroke="#fbec6e"></path><path d="M589 364L597 278L495 305Z" fill="#fbec6e" stroke="#fbec6e"></path><path d="M675 290L597 278L589 364Z" fill="#f1e400" stroke="#f1e400"></path><path d="M675 549L675 443L579 514Z" fill="#fff4ae" stroke="#fff4ae"></path><path d="M483 782L592 719L535 685Z" fill="#fbec6e" stroke="#fbec6e"></path><path d="M675 616L675 549L640 612Z" fill="#fffceb" stroke="#fffceb"></path><path d="M675 616L640 612L629 636Z" fill="#fff4ae" stroke="#fff4ae"></path><path d="M640 612L675 549L579 514Z" fill="#fff6c2" stroke="#fff6c2"></path><path d="M0 454L101 486L79 377Z" fill="#fdee84" stroke="#fdee84"></path><path d="M38 531L0 607L114 572Z" fill="#fff9d6" stroke="#fff9d6"></path><path d="M351 174L324 151L292 226Z" fill="#fbec6e" stroke="#fbec6e"></path><path d="M255 186L162 184L177 218Z" fill="#f1e400" stroke="#f1e400"></path><path d="M367 96L324 151L351 174Z" fill="#f5e739" stroke="#f5e739"></path><path d="M0 408L0 454L79 377Z" fill="#fbec6e" stroke="#fbec6e"></path><path d="M233 854L289 833L264 784Z" fill="#fbec6e" stroke="#fbec6e"></path><path d="M264 784L289 833L298 754Z" fill="#f8e956" stroke="#f8e956"></path><path d="M0 290L0 408L79 377Z" fill="#f1e400" stroke="#f1e400"></path><path d="M675 443L675 382L589 364Z" fill="#fff9d6" stroke="#fff9d6"></path><path d="M177 218L34 211L74 299Z" fill="#f8e956" stroke="#f8e956"></path><path d="M213 125L162 184L255 186Z" fill="#ffffff" stroke="#ffffff"></path><path d="M675 701L675 616L629 636Z" fill="#fff9d6" stroke="#fff9d6"></path><path d="M0 492L0 607L38 531Z" fill="#f8e956" stroke="#f8e956"></path><path d="M35 694L127 717L119 700Z" fill="#ffffff" stroke="#ffffff"></path><path d="M127 717L124 784L229 713Z" fill="#ffffff" stroke="#ffffff"></path><path d="M0 607L35 694L114 572Z" fill="#fff199" stroke="#fff199"></path><path d="M124 784L233 854L264 784Z" fill="#fff4ae" stroke="#fff4ae"></path><path d="M490 860L486 855L430 900Z" fill="#fdee84" stroke="#fdee84"></path><path d="M388 808L486 855L483 782Z" fill="#f5e739" stroke="#f5e739"></path><path d="M35 694L34 771L127 717Z" fill="#fff199" stroke="#fff199"></path><path d="M0 607L0 666L35 694Z" fill="#ffffff" stroke="#ffffff"></path><path d="M244 70L213 125L324 151Z" fill="#fff9d6" stroke="#fff9d6"></path><path d="M324 151L213 125L255 186Z" fill="#fffceb" stroke="#fffceb"></path><path d="M675 382L675 290L589 364Z" fill="#ffffff" stroke="#ffffff"></path><path d="M565 130L516 132L527 225Z" fill="#f1e400" stroke="#f1e400"></path><path d="M516 132L424 172L483 203Z" fill="#fbec6e" stroke="#fbec6e"></path><path d="M486 855L388 808L430 900Z" fill="#fbec6e" stroke="#fbec6e"></path><path d="M483 782L576 842L592 719Z" fill="#f5e739" stroke="#f5e739"></path><path d="M592 719L675 701L629 636Z" fill="#fbec6e" stroke="#fbec6e"></path><path d="M675 743L675 701L592 719Z" fill="#f1e400" stroke="#f1e400"></path><path d="M34 211L177 218L162 184Z" fill="#ffffff" stroke="#ffffff"></path><path d="M34 211L0 290L74 299Z" fill="#fff9d6" stroke="#fff9d6"></path><path d="M74 299L0 290L79 377Z" fill="#f1e400" stroke="#f1e400"></path><path d="M516 132L483 203L527 225Z" fill="#fdee84" stroke="#fdee84"></path><path d="M424 172L367 96L351 174Z" fill="#ffffff" stroke="#ffffff"></path><path d="M337 900L388 808L289 833Z" fill="#fbec6e" stroke="#fbec6e"></path><path d="M486 855L576 842L483 782Z" fill="#fdee84" stroke="#fdee84"></path><path d="M616 188L527 225L597 278Z" fill="#fffceb" stroke="#fffceb"></path><path d="M281 900L337 900L289 833Z" fill="#fff9d6" stroke="#fff9d6"></path><path d="M675 223L616 188L597 278Z" fill="#f5e739" stroke="#f5e739"></path><path d="M199 900L281 900L233 854Z" fill="#fff6c2" stroke="#fff6c2"></path><path d="M233 854L281 900L289 833Z" fill="#fbec6e" stroke="#fbec6e"></path><path d="M0 755L34 771L35 694Z" fill="#fff6c2" stroke="#fff6c2"></path><path d="M154 900L199 900L233 854Z" fill="#fdee84" stroke="#fdee84"></path><path d="M367 96L325 77L324 151Z" fill="#fdee84" stroke="#fdee84"></path><path d="M414 0L325 77L367 96Z" fill="#ffffff" stroke="#ffffff"></path><path d="M54 171L34 211L162 184Z" fill="#f8e956" stroke="#f8e956"></path><path d="M337 900L430 900L388 808Z" fill="#fff9d6" stroke="#fff9d6"></path><path d="M675 816L675 743L592 719Z" fill="#fffceb" stroke="#fffceb"></path><path d="M576 842L486 855L490 860Z" fill="#fdee84" stroke="#fdee84"></path><path d="M532 900L576 842L490 860Z" fill="#fffceb" stroke="#fffceb"></path><path d="M616 188L565 130L527 225Z" fill="#ffffff" stroke="#ffffff"></path><path d="M516 132L430 59L424 172Z" fill="#fff9d6" stroke="#fff9d6"></path><path d="M675 290L675 223L597 278Z" fill="#f5e739" stroke="#f5e739"></path><path d="M608 42L541 49L565 130Z" fill="#fffceb" stroke="#fffceb"></path><path d="M186 53L54 171L162 184Z" fill="#fffceb" stroke="#fffceb"></path><path d="M186 53L162 184L213 125Z" fill="#fdee84" stroke="#fdee84"></path><path d="M0 666L0 755L35 694Z" fill="#fff199" stroke="#fff199"></path><path d="M154 900L233 854L124 784Z" fill="#fbec6e" stroke="#fbec6e"></path><path d="M108 864L124 784L34 771Z" fill="#f8e956" stroke="#f8e956"></path><path d="M325 77L244 70L324 151Z" fill="#fdee84" stroke="#fdee84"></path><path d="M0 837L108 864L34 771Z" fill="#fffceb" stroke="#fffceb"></path><path d="M541 49L430 59L516 132Z" fill="#fffceb" stroke="#fffceb"></path><path d="M208 0L186 53L244 70Z" fill="#fdee84" stroke="#fdee84"></path><path d="M108 864L154 900L124 784Z" fill="#fff4ae" stroke="#fff4ae"></path><path d="M430 900L532 900L490 860Z" fill="#f5e739" stroke="#f5e739"></path><path d="M576 842L675 816L592 719Z" fill="#f8e956" stroke="#f8e956"></path><path d="M0 148L0 195L54 171Z" fill="#fff4ae" stroke="#fff4ae"></path><path d="M54 171L0 195L34 211Z" fill="#fff4ae" stroke="#fff4ae"></path><path d="M34 211L0 195L0 290Z" fill="#fbec6e" stroke="#fbec6e"></path><path d="M274 0L244 70L325 77Z" fill="#fff199" stroke="#fff199"></path><path d="M244 70L186 53L213 125Z" fill="#fbec6e" stroke="#fbec6e"></path><path d="M620 900L675 816L576 842Z" fill="#f1e400" stroke="#f1e400"></path><path d="M44 39L0 148L54 171Z" fill="#fff4ae" stroke="#fff4ae"></path><path d="M0 755L0 837L34 771Z" fill="#fbec6e" stroke="#fbec6e"></path><path d="M108 864L74 900L154 900Z" fill="#f1e400" stroke="#f1e400"></path><path d="M565 130L541 49L516 132Z" fill="#fdee84" stroke="#fdee84"></path><path d="M414 0L274 0L325 77Z" fill="#fff6c2" stroke="#fff6c2"></path><path d="M675 113L565 130L616 188Z" fill="#ffffff" stroke="#ffffff"></path><path d="M0 837L74 900L108 864Z" fill="#ffffff" stroke="#ffffff"></path><path d="M532 900L620 900L576 842Z" fill="#fff199" stroke="#fff199"></path><path d="M414 0L367 96L430 59Z" fill="#fff9d6" stroke="#fff9d6"></path><path d="M186 53L44 39L54 171Z" fill="#ffffff" stroke="#ffffff"></path><path d="M484 0L414 0L430 59Z" fill="#fffceb" stroke="#fffceb"></path><path d="M675 223L675 113L616 188Z" fill="#fdee84" stroke="#fdee84"></path><path d="M274 0L208 0L244 70Z" fill="#fff199" stroke="#fff199"></path><path d="M518 0L484 0L541 49Z" fill="#fbec6e" stroke="#fbec6e"></path><path d="M541 49L484 0L430 59Z" fill="#fff6c2" stroke="#fff6c2"></path><path d="M590 0L518 0L541 49Z" fill="#fff199" stroke="#fff199"></path><path d="M675 89L608 42L565 130Z" fill="#fdee84" stroke="#fdee84"></path><path d="M675 113L675 89L565 130Z" fill="#fff9d6" stroke="#fff9d6"></path><path d="M208 0L159 0L186 53Z" fill="#fbec6e" stroke="#fbec6e"></path><path d="M620 900L675 900L675 816Z" fill="#fbec6e" stroke="#fbec6e"></path><path d="M0 837L0 900L74 900Z" fill="#fdee84" stroke="#fdee84"></path><path d="M110 0L44 39L186 53Z" fill="#f5e739" stroke="#f5e739"></path><path d="M159 0L110 0L186 53Z" fill="#fff6c2" stroke="#fff6c2"></path><path d="M675 0L590 0L608 42Z" fill="#f5e739" stroke="#f5e739"></path><path d="M608 42L590 0L541 49Z" fill="#f8e956" stroke="#f8e956"></path><path d="M0 0L0 39L44 39Z" fill="#fff199" stroke="#fff199"></path><path d="M44 39L0 39L0 148Z" fill="#fffceb" stroke="#fffceb"></path><path d="M675 89L675 0L608 42Z" fill="#fdee84" stroke="#fdee84"></path><path d="M110 0L0 0L44 39Z" fill="#fffceb" stroke="#fffceb"></path></g></svg>