<svg id="visual" viewBox="0 0 3000 1000" width="3000" height="1000" xmlns="http://www.w3.org/2000/svg" xmlns:xlink="http://www.w3.org/1999/xlink" version="1.1"><path d="M0 141L71.5 147.7C143 154.3 286 167.7 428.8 179.3C571.7 191 714.3 201 857.2 196C1000 191 1143 171 1285.8 149.3C1428.7 127.7 1571.3 104.3 1714.2 97.7C1857 91 2000 101 2142.8 112.7C2285.7 124.3 2428.3 137.7 2571.2 159.3C2714 181 2857 211 2928.5 226L3000 241L3000 0L2928.5 0C2857 0 2714 0 2571.2 0C2428.3 0 2285.7 0 2142.8 0C2000 0 1857 0 1714.2 0C1571.3 0 1428.7 0 1285.8 0C1143 0 1000 0 857.2 0C714.3 0 571.7 0 428.8 0C286 0 143 0 71.5 0L0 0Z" fill="#08202c"></path><path d="M0 351L71.5 392.7C143 434.3 286 517.7 428.8 537.7C571.7 557.7 714.3 514.3 857.2 527.7C1000 541 1143 611 1285.8 594.3C1428.7 577.7 1571.3 474.3 1714.2 439.3C1857 404.3 2000 437.7 2142.8 466C2285.7 494.3 2428.3 517.7 2571.2 524.3C2714 531 2857 521 2928.5 516L3000 511L3000 239L2928.5 224C2857 209 2714 179 2571.2 157.3C2428.3 135.7 2285.7 122.3 2142.8 110.7C2000 99 1857 89 1714.2 95.7C1571.3 102.3 1428.7 125.7 1285.8 147.3C1143 169 1000 189 857.2 194C714.3 199 571.7 189 428.8 177.3C286 165.7 143 152.3 71.5 145.7L0 139Z" fill="#062736"></path><path d="M0 861L71.5 856C143 851 286 841 428.8 822.7C571.7 804.3 714.3 777.7 857.2 782.7C1000 787.7 1143 824.3 1285.8 839.3C1428.7 854.3 1571.3 847.7 1714.2 846C1857 844.3 2000 847.7 2142.8 857.7C2285.7 867.7 2428.3 884.3 2571.2 882.7C2714 881 2857 861 2928.5 851L3000 841L3000 509L2928.5 514C2857 519 2714 529 2571.2 522.3C2428.3 515.7 2285.7 492.3 2142.8 464C2000 435.7 1857 402.3 1714.2 437.3C1571.3 472.3 1428.7 575.7 1285.8 592.3C1143 609 1000 539 857.2 525.7C714.3 512.3 571.7 555.7 428.8 535.7C286 515.7 143 432.3 71.5 390.7L0 349Z" fill="#07384d"></path><path d="M0 1001L71.5 1001C143 1001 286 1001 428.8 1001C571.7 1001 714.3 1001 857.2 1001C1000 1001 1143 1001 1285.8 1001C1428.7 1001 1571.3 1001 1714.2 1001C1857 1001 2000 1001 2142.8 1001C2285.7 1001 2428.3 1001 2571.2 1001C2714 1001 2857 1001 2928.5 1001L3000 1001L3000 839L2928.5 849C2857 859 2714 879 2571.2 880.7C2428.3 882.3 2285.7 865.7 2142.8 855.7C2000 845.7 1857 842.3 1714.2 844C1571.3 845.7 1428.7 852.3 1285.8 837.3C1143 822.3 1000 785.7 857.2 780.7C714.3 775.7 571.7 802.3 428.8 820.7C286 839 143 849 71.5 854L0 859Z" fill="#115573"></path></svg>