<svg id="visual" viewBox="0 0 900 600" width="900" height="600" xmlns="http://www.w3.org/2000/svg" xmlns:xlink="http://www.w3.org/1999/xlink" version="1.1"><rect x="0" y="0" width="900" height="600" fill="#FFFFFF"></rect><path d="M0 353L12.5 347C25 341 50 329 75 318.2C100 307.3 125 297.7 150 292.8C175 288 200 288 225 297.7C250 307.3 275 326.7 300 319.3C325 312 350 278 375 279.3C400 280.7 425 317.3 450 333.5C475 349.7 500 345.3 525 342C550 338.7 575 336.3 600 330.7C625 325 650 316 675 313.3C700 310.7 725 314.3 750 309.8C775 305.3 800 292.7 825 290.8C850 289 875 298 887.5 302.5L900 307L900 601L887.5 601C875 601 850 601 825 601C800 601 775 601 750 601C725 601 700 601 675 601C650 601 625 601 600 601C575 601 550 601 525 601C500 601 475 601 450 601C425 601 400 601 375 601C350 601 325 601 300 601C275 601 250 601 225 601C200 601 175 601 150 601C125 601 100 601 75 601C50 601 25 601 12.5 601L0 601Z" fill="#f1e400" stroke-linecap="round" stroke-linejoin="miter"></path></svg>